{
    "asset" : {
        "generator" : "Khronos glTF Blender I/O v1.6.16",
        "version" : "2.0"
    },
    "scene" : 0,
    "scenes" : [
        {
            "name" : "Scene",
            "nodes" : [
                2
            ]
        }
    ],
    "nodes" : [
        {
            "mesh" : 0,
            "name" : "Circle.001",
            "translation" : [
                0,
                -7.868274211883545,
                0
            ]
        },
        {
            "mesh" : 1,
            "name" : "Text",
            "rotation" : [
                -0.6834856867790222,
                0.18123827874660492,
                -0.1812382936477661,
                0.6834856867790222
            ],
            "scale" : [
                2.9202022552490234,
                2.9202022552490234,
                2.9202022552490234
            ],
            "translation" : [
                -7.684603214263916,
                6.01308536529541,
                -0.27402856945991516
            ]
        },
        {
            "children" : [
                0,
                1
            ],
            "mesh" : 2,
            "name" : "Logo",
            "rotation" : [
                0.6834856867790222,
                -0.18123827874660492,
                0.1812382936477661,
                0.6834856867790222
            ],
            "scale" : [
                0.34244203567504883,
                0.34244203567504883,
                0.34244203567504883
            ],
            "translation" : [
                -0.3560795187950134,
                0,
                0.57065349817276
            ]
        }
    ],
    "materials" : [
        {
            "doubleSided" : true,
            "name" : "Material.002",
            "pbrMetallicRoughness" : {
                "baseColorFactor" : [
                    0.05464032664895058,
                    0.025685874745249748,
                    0,
                    1
                ],
                "roughnessFactor" : 0.23636364936828613
            }
        },
        {
            "doubleSided" : true,
            "name" : "Material.004",
            "pbrMetallicRoughness" : {
                "baseColorFactor" : [
                    0,
                    0,
                    0,
                    1
                ],
                "metallicFactor" : 0,
                "roughnessFactor" : 0.5
            }
        },
        {
            "doubleSided" : true,
            "name" : "Material.001",
            "pbrMetallicRoughness" : {
                "baseColorFactor" : [
                    0.054635897278785706,
                    0.04040046036243439,
                    0,
                    1
                ],
                "roughnessFactor" : 0.2863636314868927
            }
        },
        {
            "doubleSided" : true,
            "name" : "Material.003",
            "pbrMetallicRoughness" : {
                "baseColorFactor" : [
                    0.449097603559494,
                    0.449097603559494,
                    0.449097603559494,
                    1
                ],
                "roughnessFactor" : 0.5
            }
        }
    ],
    "meshes" : [
        {
            "name" : "Circle.002",
            "primitives" : [
                {
                    "attributes" : {
                        "POSITION" : 0,
                        "NORMAL" : 1,
                        "TEXCOORD_0" : 2
                    },
                    "indices" : 3,
                    "material" : 0
                }
            ]
        },
        {
            "name" : "Text",
            "primitives" : [
                {
                    "attributes" : {
                        "POSITION" : 4,
                        "NORMAL" : 5,
                        "TEXCOORD_0" : 6
                    },
                    "indices" : 7,
                    "material" : 1
                }
            ]
        },
        {
            "name" : "Circle",
            "primitives" : [
                {
                    "attributes" : {
                        "POSITION" : 8,
                        "NORMAL" : 9,
                        "TEXCOORD_0" : 10
                    },
                    "indices" : 11,
                    "material" : 2
                },
                {
                    "attributes" : {
                        "POSITION" : 12,
                        "NORMAL" : 13,
                        "TEXCOORD_0" : 14
                    },
                    "indices" : 15,
                    "material" : 3
                }
            ]
        }
    ],
    "accessors" : [
        {
            "bufferView" : 0,
            "componentType" : 5126,
            "count" : 19456,
            "max" : [
                0.5860936641693115,
                1.8732454776763916,
                0.5860936641693115
            ],
            "min" : [
                -0.5860937237739563,
                -0.7890920042991638,
                -0.5860937237739563
            ],
            "type" : "VEC3"
        },
        {
            "bufferView" : 1,
            "componentType" : 5126,
            "count" : 19456,
            "type" : "VEC3"
        },
        {
            "bufferView" : 2,
            "componentType" : 5126,
            "count" : 19456,
            "type" : "VEC2"
        },
        {
            "bufferView" : 3,
            "componentType" : 5123,
            "count" : 29184,
            "type" : "SCALAR"
        },
        {
            "bufferView" : 4,
            "componentType" : 5126,
            "count" : 1376,
            "max" : [
                6.53269624710083,
                0,
                -0.13251695036888123
            ],
            "min" : [
                0.6886317729949951,
                -0.210000142455101,
                -2.3713877201080322
            ],
            "type" : "VEC3"
        },
        {
            "bufferView" : 5,
            "componentType" : 5126,
            "count" : 1376,
            "type" : "VEC3"
        },
        {
            "bufferView" : 6,
            "componentType" : 5126,
            "count" : 1376,
            "type" : "VEC2"
        },
        {
            "bufferView" : 7,
            "componentType" : 5123,
            "count" : 1992,
            "type" : "SCALAR"
        },
        {
            "bufferView" : 8,
            "componentType" : 5126,
            "count" : 57344,
            "max" : [
                1.0580339431762695,
                3.058281660079956,
                1.0580339431762695
            ],
            "min" : [
                -1.058034062385559,
                -5.99503231048584,
                -1.0580341815948486
            ],
            "type" : "VEC3"
        },
        {
            "bufferView" : 9,
            "componentType" : 5126,
            "count" : 57344,
            "type" : "VEC3"
        },
        {
            "bufferView" : 10,
            "componentType" : 5126,
            "count" : 57344,
            "type" : "VEC2"
        },
        {
            "bufferView" : 11,
            "componentType" : 5123,
            "count" : 86016,
            "type" : "SCALAR"
        },
        {
            "bufferView" : 12,
            "componentType" : 5126,
            "count" : 7168,
            "max" : [
                0.41426876187324524,
                3.058281421661377,
                0.41803866624832153
            ],
            "min" : [
                -0.4218089282512665,
                3.025211811065674,
                -0.4180389940738678
            ],
            "type" : "VEC3"
        },
        {
            "bufferView" : 13,
            "componentType" : 5126,
            "count" : 7168,
            "type" : "VEC3"
        },
        {
            "bufferView" : 14,
            "componentType" : 5126,
            "count" : 7168,
            "type" : "VEC2"
        },
        {
            "bufferView" : 15,
            "componentType" : 5123,
            "count" : 10752,
            "type" : "SCALAR"
        }
    ],
    "bufferViews" : [
        {
            "buffer" : 0,
            "byteLength" : 233472,
            "byteOffset" : 0
        },
        {
            "buffer" : 0,
            "byteLength" : 233472,
            "byteOffset" : 233472
        },
        {
            "buffer" : 0,
            "byteLength" : 155648,
            "byteOffset" : 466944
        },
        {
            "buffer" : 0,
            "byteLength" : 58368,
            "byteOffset" : 622592
        },
        {
            "buffer" : 0,
            "byteLength" : 16512,
            "byteOffset" : 680960
        },
        {
            "buffer" : 0,
            "byteLength" : 16512,
            "byteOffset" : 697472
        },
        {
            "buffer" : 0,
            "byteLength" : 11008,
            "byteOffset" : 713984
        },
        {
            "buffer" : 0,
            "byteLength" : 3984,
            "byteOffset" : 724992
        },
        {
            "buffer" : 0,
            "byteLength" : 688128,
            "byteOffset" : 728976
        },
        {
            "buffer" : 0,
            "byteLength" : 688128,
            "byteOffset" : 1417104
        },
        {
            "buffer" : 0,
            "byteLength" : 458752,
            "byteOffset" : 2105232
        },
        {
            "buffer" : 0,
            "byteLength" : 172032,
            "byteOffset" : 2563984
        },
        {
            "buffer" : 0,
            "byteLength" : 86016,
            "byteOffset" : 2736016
        },
        {
            "buffer" : 0,
            "byteLength" : 86016,
            "byteOffset" : 2822032
        },
        {
            "buffer" : 0,
            "byteLength" : 57344,
            "byteOffset" : 2908048
        },
        {
            "buffer" : 0,
            "byteLength" : 21504,
            "byteOffset" : 2965392
        }
    ],
    "buffers" : [
        {
            "byteLength" : 2986896,
            "uri" : "data:application/octet-stream;base64,"
        }
    ]
}
